# xmcd CD database file
#
# Track frame offsets:
#	150
#	12587
#	24062
#	34960
#	47350
#	60250
#	69400
#	80987
#	93962
#	106862
#
# Disc length: 1589 seconds
#
# Revision: 2
# Processed by: cddbd v1.5.2PL0 Copyright (c) Steve Scherf et al.
# Submitted via: CDex 1.50beta10
#
DISCID=7006330a
DTITLE=Various Artist - Pure Country: 50's Superstars
DYEAR=1997
DGENRE=Country
TTITLE0=Hank Thompson and His Brazos Valley Boys - The Wild Side Of Life
TTITLE1=Kitty Wells - It Wasn't God Who Made Honky Tonk Angels
TTITLE2=Ferlin Husky - Gone
TTITLE3=Johnny Cash - I Walk The Line
TTITLE4=Hank Snow - I'm Movin' On
TTITLE5=Patsy Cline - Walkin' After Midnight
TTITLE6=Ray Price - Crazy Arms
TTITLE7=Eddy Arnold - I Really Don't Want To Know
TTITLE8=Jim Reeves - Four Walls
TTITLE9=Porter Wagner - A Satisfied Mind
EXTD=YEAR: 1997
EXTT0=
EXTT1=
EXTT2=
EXTT3=
EXTT4=
EXTT5=
EXTT6=
EXTT7=
EXTT8=
EXTT9=
PLAYORDER=
